# xmcd
# 
# Track frame offsets:
#     182
#     9600
#     22617
#     33415
#     42620
#     53827
#     63672
#     74340
#     83857
#     95637
#     106930
#     119817
#     131092
#     141670
#     154082
# 
# Disc length: 2224
# 
# Revision: 0
# Processed by: cddbd v1.5.2PL0 Copyright (c) Steve Scherf et al.
# Submitted via: fre:ac v1.0.17
# 
DISCID=da08ae0f
DTITLE=Faron Young - Hello Walls
DYEAR=1995
DGENRE=Country
TTITLE0=Hello Walls
TTITLE1=It's Four In The Morning
TTITLE2=Memphis
TTITLE3=Heartache For A Keepsake
TTITLE4=Live Fast, Love Hard, Die Young
TTITLE5=Alone With You
TTITLE6=Face To The Wall
TTITLE7=Some Of Your Memories
TTITLE8=Unmitigated Gall
TTITLE9=Goin' Steady
TTITLE10=Three Days
TTITLE11=Cryin' Time
TTITLE12=I Could Never Be Ashamed Of You
TTITLE13=Country Girl
TTITLE14=Apartment # 9
EXTD=
EXTT0=
EXTT1=
EXTT2=
EXTT3=
EXTT4=
EXTT5=
EXTT6=
EXTT7=
EXTT8=
EXTT9=
EXTT10=
EXTT11=
EXTT12=
EXTT13=
EXTT14=
PLAYORDER=
